<svg width="48" height="48" viewBox="0 0 48 48" xmlns="http://www.w3.org/2000/svg">
  <path d="M36.4444 8H11.5556C9.58222 8 8 9.58222 8 11.5556V18.6667H11.5556V11.5556H36.4444V36.4444H11.5556V29.3333H8V36.4444C8 37.3874 8.3746 38.2918 9.0414 38.9586C9.70819 39.6254 10.6126 40 11.5556 40H36.4444C37.3874 40 38.2918 39.6254 38.9586 38.9586C39.6254 38.2918 40 37.3874 40 36.4444V11.5556C40 10.6126 39.6254 9.70819 38.9586 9.0414C38.2918 8.3746 37.3874 8 36.4444 8ZM20.5867 30.3644L23.1111 32.8889L32 24L23.1111 15.1111L20.5867 17.6178L25.1911 22.2222H8V25.7778H25.1911L20.5867 30.3644Z" fill="#DD3C3C"/>
</svg>
